<svg viewBox="0 0 200 200" xmlns="http://www.w3.org/2000/svg">
  <!-- Background Circle -->
  <circle cx="100" cy="100" r="90" fill="#f5f5f5"/>
  
  <!-- Family Icon Group -->
  <g transform="translate(40, 40)">
    <!-- Adult 1 -->
    <circle cx="40" cy="25" r="15" fill="#0072ce"/>
    <path d="M40,45 L40,75 M25,55 L55,55" 
          stroke="#0072ce" stroke-width="8" stroke-linecap="round" fill="none"/>
    
    <!-- Adult 2 -->
    <circle cx="80" cy="25" r="15" fill="#0072ce"/>
    <path d="M80,45 L80,75 M65,55 L95,55" 
          stroke="#0072ce" stroke-width="8" stroke-linecap="round" fill="none"/>
    
    <!-- Child 1 -->
    <circle cx="20" cy="85" r="10" fill="#00a9e0"/>
    <path d="M20,98 L20,115 M10,105 L30,105" 
          stroke="#00a9e0" stroke-width="6" stroke-linecap="round" fill="none"/>
    
    <!-- Child 2 -->
    <circle cx="60" cy="85" r="10" fill="#00a9e0"/>
    <path d="M60,98 L60,115 M50,105 L70,105" 
          stroke="#00a9e0" stroke-width="6" stroke-linecap="round" fill="none"/>
    
    <!-- Baby -->
    <circle cx="100" cy="85" r="8" fill="#00a9e0"/>
    <path d="M100,95 L100,108 M93,102 L107,102" 
          stroke="#00a9e0" stroke-width="5" stroke-linecap="round" fill="none"/>
  </g>
  
  <!-- Bottom Label -->
  <text x="100" y="180" font-family="Arial, sans-serif" font-weight="700" font-size="16" 
        text-anchor="middle" fill="#333333">Family Plan</text>
</svg>