<svg viewBox="0 0 600 300" xmlns="http://www.w3.org/2000/svg">
  <!-- Background -->
  <rect width="600" height="300" fill="#f5f5f5"/>
  
  <!-- Team Member 1 (CEO) -->
  <g transform="translate(75, 50)">
    <!-- Portrait Frame -->
    <circle cx="50" cy="50" r="40" fill="#0072ce"/>
    
    <!-- Stylized Face -->
    <circle cx="50" cy="45" r="25" fill="#ffffff"/>
    
    <!-- Hair -->
    <path d="M25,45 Q50,20 75,45" stroke="#333333" stroke-width="8" fill="none"/>
    
    <!-- Eyes -->
    <ellipse cx="40" cy="42" rx="4" ry="3" fill="#333333"/>
    <ellipse cx="60" cy="42" rx="4" ry="3" fill="#333333"/>
    
    <!-- Smile -->
    <path d="M40,55 Q50,62 60,55" stroke="#333333" stroke-width="2" fill="none"/>
    
    <!-- Glasses -->
    <circle cx="40" cy="42" r="7" stroke="#333333" stroke-width="1" fill="none"/>
    <circle cx="60" cy="42" r="7" stroke="#333333" stroke-width="1" fill="none"/>
    <line x1="47" y1="42" x2="53" y2="42" stroke="#333333" stroke-width="1"/>
    
    <!-- Suit -->
    <path d="M35,80 L50,100 L65,80" fill="#333333"/>
    <rect x="45" y="75" width="10" height="25" fill="#ffffff"/>
    
    <!-- Name Plate -->
    <text x="50" y="120" font-family="Arial, sans-serif" font-weight="700" font-size="10" 
          text-anchor="middle" fill="#333333">Dr. Jane Smith</text>
    <text x="50" y="135" font-family="Arial, sans-serif" font-size="8" 
          text-anchor="middle" fill="#333333">CEO</text>
  </g>
  
  <!-- Team Member 2 (CFO) -->
  <g transform="translate(225, 50)">
    <!-- Portrait Frame -->
    <circle cx="50" cy="50" r="40" fill="#0072ce"/>
    
    <!-- Stylized Face -->
    <circle cx="50" cy="45" r="25" fill="#ffffff"/>
    
    <!-- Hair -->
    <path d="M30,30 L70,30 L70,50 L30,50 Z" fill="#333333"/>
    
    <!-- Eyes -->
    <ellipse cx="40" cy="42" rx="4" ry="3" fill="#333333"/>
    <ellipse cx="60" cy="42" rx="4" ry="3" fill="#333333"/>
    
    <!-- Smile -->
    <path d="M40,55 Q50,60 60,55" stroke="#333333" stroke-width="2" fill="none"/>
    
    <!-- Suit -->
    <path d="M35,80 L50,100 L65,80" fill="#333333"/>
    <rect x="45" y="75" width="10" height="25" fill="#ffffff"/>
    
    <!-- Name Plate -->
    <text x="50" y="120" font-family="Arial, sans-serif" font-weight="700" font-size="10" 
          text-anchor="middle" fill="#333333">Michael Johnson</text>
    <text x="50" y="135" font-family="Arial, sans-serif" font-size="8" 
          text-anchor="middle" fill="#333333">CFO</text>
  </g>
  
  <!-- Team Member 3 (CMO) -->
  <g transform="translate(375, 50)">
    <!-- Portrait Frame -->
    <circle cx="50" cy="50" r="40" fill="#0072ce"/>
    
    <!-- Stylized Face -->
    <circle cx="50" cy="45" r="25" fill="#ffffff"/>
    
    <!-- Hair -->
    <path d="M25,35 C25,35 40,15 50,35 C60,15 75,35 75,35 L75,55 C75,55 65,70 50,65 C35,70 25,55 25,55 Z" fill="#333333"/>
    
    <!-- Eyes -->
    <ellipse cx="40" cy="42" rx="4" ry="3" fill="#333333"/>
    <ellipse cx="60" cy="42" rx="4" ry="3" fill="#333333"/>
    
    <!-- Smile -->
    <path d="M40,55 Q50,62 60,55" stroke="#333333" stroke-width="2" fill="none"/>
    
    <!-- Suit -->
    <path d="M35,80 L50,100 L65,80" fill="#00a9e0"/>
    <rect x="45" y="75" width="10" height="25" fill="#ffffff"/>
    
    <!-- Name Plate -->
    <text x="50" y="120" font-family="Arial, sans-serif" font-weight="700" font-size="10" 
          text-anchor="middle" fill="#333333">Dr. Sarah Lee</text>
    <text x="50" y="135" font-family="Arial, sans-serif" font-size="8" 
          text-anchor="middle" fill="#333333">CMO</text>
  </g>
  
  <!-- Team Member 4 (CTO) -->
  <g transform="translate(175, 175)">
    <!-- Portrait Frame -->
    <circle cx="50" cy="50" r="40" fill="#0072ce"/>
    
    <!-- Stylized Face -->
    <circle cx="50" cy="45" r="25" fill="#ffffff"/>
    
    <!-- Hair -->
    <path d="M30,25 L70,25 L70,50 C70,50 60,70 50,65 C40,70 30,50 30,50 Z" fill="#333333"/>
    
    <!-- Eyes -->
    <ellipse cx="40" cy="42" rx="4" ry="3" fill="#333333"/>
    <ellipse cx="60" cy="42" rx="4" ry="3" fill="#333333"/>
    
    <!-- Smile -->
    <path d="M45,55 L55,55" stroke="#333333" stroke-width="2" fill="none"/>
    
    <!-- Glasses -->
    <rect x="35" y="37" width="10" height="10" rx="2" ry="2" stroke="#333333" stroke-width="1" fill="none"/>
    <rect x="55" y="37" width="10" height="10" rx="2" ry="2" stroke="#333333" stroke-width="1" fill="none"/>
    <line x1="45" y1="42" x2="55" y2="42" stroke="#333333" stroke-width="1"/>
    
    <!-- Suit -->
    <path d="M35,80 L50,100 L65,80" fill="#333333"/>
    <rect x="45" y="75" width="10" height="25" fill="#ffffff"/>
    
    <!-- Name Plate -->
    <text x="50" y="120" font-family="Arial, sans-serif" font-weight="700" font-size="10" 
          text-anchor="middle" fill="#333333">Robert Chen</text>
    <text x="50" y="135" font-family="Arial, sans-serif" font-size="8" 
          text-anchor="middle" fill="#333333">CTO</text>
  </g>
  
  <!-- Team Member 5 (COO) -->
  <g transform="translate(325, 175)">
    <!-- Portrait Frame -->
    <circle cx="50" cy="50" r="40" fill="#0072ce"/>
    
    <!-- Stylized Face -->
    <circle cx="50" cy="45" r="25" fill="#ffffff"/>
    
    <!-- Hair -->
    <path d="M35,30 C35,30 40,20 50,20 C60,20 65,30 65,30 L65,45 L35,45 Z" fill="#333333"/>
    
    <!-- Eyes -->
    <ellipse cx="40" cy="42" rx="4" ry="3" fill="#333333"/>
    <ellipse cx="60" cy="42" rx="4" ry="3" fill="#333333"/>
    
    <!-- Smile -->
    <path d="M40,55 Q50,60 60,55" stroke="#333333" stroke-width="2" fill="none"/>
    
    <!-- Suit -->
    <path d="M35,80 L50,100 L65,80" fill="#00a9e0"/>
    <rect x="45" y="75" width="10" height="25" fill="#ffffff"/>
    
    <!-- Name Plate -->
    <text x="50" y="120" font-family="Arial, sans-serif" font-weight="700" font-size="10" 
          text-anchor="middle" fill="#333333">Amanda Garcia</text>
    <text x="50" y="135" font-family="Arial, sans-serif" font-size="8" 
          text-anchor="middle" fill="#333333">COO</text>
  </g>
</svg>